<svg width="27px" height="30px" viewBox="0 0 27 30" version="1.1" xmlns="http://www.w3.org/2000/svg" xmlns:xlink="http://www.w3.org/1999/xlink">
    <g stroke="none" stroke-width="1" fill="none" fill-rule="evenodd">
        <g id="PLP" transform="translate(-1839.000000, -48.000000)" fill="#FFFFFF" fill-rule="nonzero" stroke="#FFFFFF">
            <g id="-BAG" transform="translate(1840.000000, 49.000000)">
                <path d="M23.7730061,6.07407407 C23.7730061,5.92592593 23.6196319,5.77777778 23.4662577,5.77777778 L17.9447853,5.77777778 L17.9447853,5.48148148 C17.9447853,2.51851852 15.3374233,0 12.2699387,0 L11.9631902,0 C8.89570552,0 6.28834356,2.51851852 6.28834356,5.48148148 L6.28834356,5.77777778 L1.3803681,5.77777778 C1.22699387,5.77777778 1.07361963,5.92592593 1.07361963,6.07407407 L0,27.5555556 C0,27.7037037 0,27.7037037 0.153374233,27.8518519 C0.153374233,27.8518519 0.306748466,28 0.460122699,28 L24.5398773,28 C24.6932515,28 24.6932515,28 24.8466258,27.8518519 C24.8466258,27.8518519 25,27.7037037 25,27.5555556 L23.7730061,6.07407407 Z M7.05521472,5.48148148 C7.05521472,2.81481481 9.35582822,0.592592593 12.1165644,0.592592593 L12.4233129,0.592592593 C15.1840491,0.592592593 17.4846626,2.81481481 17.4846626,5.48148148 L17.4846626,5.77777778 L7.05521472,5.77777778 L7.05521472,5.48148148 Z M0.766871166,27.1111111 L1.68711656,6.37037037 L6.28834356,6.37037037 L6.28834356,10.3703704 L5.82822086,10.3703704 C5.67484663,10.3703704 5.52147239,10.5185185 5.52147239,10.6666667 C5.52147239,10.8148148 5.67484663,10.962963 5.82822086,10.962963 L7.51533742,10.962963 C7.66871166,10.962963 7.82208589,10.8148148 7.82208589,10.6666667 C7.82208589,10.5185185 7.66871166,10.3703704 7.51533742,10.3703704 L7.05521472,10.3703704 L7.05521472,6.37037037 L17.4846626,6.37037037 L17.4846626,10.3703704 L17.0245399,10.3703704 C16.8711656,10.3703704 16.7177914,10.5185185 16.7177914,10.6666667 C16.7177914,10.8148148 16.8711656,10.962963 17.0245399,10.962963 L18.5582822,10.962963 C18.7116564,10.962963 18.8650307,10.8148148 18.8650307,10.6666667 C18.8650307,10.5185185 18.7116564,10.3703704 18.5582822,10.3703704 L18.0981595,10.3703704 L18.0981595,6.37037037 L23.1595092,6.37037037 L24.0797546,27.1111111 C24.0797546,27.1111111 0.766871166,27.1111111 0.766871166,27.1111111 Z"></path>
            </g>
        </g>
    </g>
</svg>