<svg version="1.1" id="Layer_1" xmlns="http://www.w3.org/2000/svg" xmlns:xlink="http://www.w3.org/1999/xlink" x="0px" y="0px" viewBox="0 0 395.8 395.8" style="enable-background:new 0 0 395.8 395.8;" xml:space="preserve">
<path d="M119.8,0C53.8,0,0,53.8,0,119.8V276c0,66,53.8,119.8,119.8,119.8H276c66,0,119.8-53.8,119.8-119.8V119.8
	C395.8,53.8,342,0,276,0H119.8z M119.8,31.2H276c49.1,0,88.5,39.5,88.5,88.5V276c0,49.1-39.5,88.5-88.5,88.5H119.8
	c-49.1,0-88.5-39.5-88.5-88.5V119.8C31.2,70.7,70.7,31.2,119.8,31.2z M302.1,72.9c-11.5,0-20.8,9.3-20.8,20.8s9.3,20.8,20.8,20.8
	s20.8-9.3,20.8-20.8S313.6,72.9,302.1,72.9z M197.9,93.8c-57.3,0-104.2,46.8-104.2,104.2s46.8,104.2,104.2,104.2
	s104.2-46.8,104.2-104.2S255.3,93.8,197.9,93.8z M197.9,125c40.4,0,72.9,32.5,72.9,72.9s-32.5,72.9-72.9,72.9S125,238.4,125,197.9
	S157.5,125,197.9,125z"></path>
</svg>