<svg width="21px" height="18px" viewBox="0 0 21 18" version="1.1" xmlns="http://www.w3.org/2000/svg" xmlns:xlink="http://www.w3.org/1999/xlink">
    <title>left-arrow</title>
    <g id="Symbols" stroke="none" stroke-width="1" fill="none" fill-rule="evenodd">
        <g id="FOOTER-DESKTOP" transform="translate(-1846.000000, -118.000000)" fill="#000000" fill-rule="nonzero" stroke="#000000">
            <g id="left-arrow" transform="translate(1856.500000, 127.500000) scale(-1, 1) translate(-1856.500000, -127.500000) translate(1847.000000, 119.000000)">
                <path d="M18.2083333,7.23472316 L2.41497917,7.23472316 L8.46252083,1.38600983 C8.7791875,1.07974818 8.79145833,0.570919762 8.48983333,0.249385219 C8.18860417,-0.0717474052 7.68747917,-0.0846087869 7.37041667,0.221652865 L0.463916667,6.90153299 C0.1650625,7.20538313 0,7.60890898 0,8.03855951 C0,8.46780813 0.1650625,8.8717359 0.477770833,9.18884934 L7.3708125,15.8550642 C7.524,16.0033721 7.72033333,16.0769231 7.91666667,16.0769231 C8.12566667,16.0769231 8.33466667,15.9933241 8.49022917,15.8273319 C8.79185417,15.5057973 8.77958333,14.9973709 8.46291667,14.6911092 L2.39004167,8.84239587 L18.2083333,8.84239587 C18.6453333,8.84239587 19,8.48227718 19,8.03855951 C19,7.59484184 18.6453333,7.23472316 18.2083333,7.23472316 L18.2083333,7.23472316 Z" id="Path"></path>
            </g>
        </g>
    </g>
</svg>