<?xml version="1.0" encoding="UTF-8"?>
<svg width="13px" height="11px" viewBox="0 0 13 11" version="1.1" xmlns="http://www.w3.org/2000/svg" xmlns:xlink="http://www.w3.org/1999/xlink">
    <title>left-arrow</title>
    <g id="MOBILE" stroke="none" stroke-width="1" fill="none" fill-rule="evenodd">
        <g id="STYLE-GUIDE-Copy" transform="translate(-816.000000, -604.000000)" fill="#FFFFFF" fill-rule="nonzero">
            <g id="left-arrow" transform="translate(822.500000, 609.500000) scale(-1, 1) translate(-822.500000, -609.500000) translate(816.000000, 604.000000)">
                <path d="M12.4583333,4.95007374 L1.65235417,4.95007374 L5.79014583,0.948322513 C6.0068125,0.738775067 6.01520833,0.390629311 5.80883333,0.170631992 C5.60272917,-0.0490903298 5.25985417,-0.0578902226 5.04291667,0.151657223 L0.317416667,4.72210152 C0.1129375,4.92999898 0,5.20609562 0,5.50006704 C0,5.79376346 0.1129375,6.07013509 0.326895833,6.28710744 L5.0431875,10.8482019 C5.148,10.9496756 5.28233333,11 5.41666667,11 C5.55966667,11 5.70266667,10.9428007 5.80910417,10.8292271 C6.01547917,10.6092298 6.00708333,10.261359 5.79041667,10.0518116 L1.63529167,6.05006033 L12.4583333,6.05006033 C12.7573333,6.05006033 13,5.80366333 13,5.50006704 C13,5.19647074 12.7573333,4.95007374 12.4583333,4.95007374 L12.4583333,4.95007374 Z" id="Path"></path>
            </g>
        </g>
    </g>
</svg>