<svg version="1.1" id="Layer_1" xmlns="http://www.w3.org/2000/svg" xmlns:xlink="http://www.w3.org/1999/xlink" x="0px" y="0px"
	 viewBox="0 0 3700.1 440.8" style="enable-background:new 0 0 3700.1 440.8;" xml:space="preserve">
<g>
	<path d="M53.3,47.8c16,0.1,32,0.2,48,0.2c39.7,0,79.3-0.3,119,0.1c30.1,0.3,59.4,4.9,86.3,19.5c45.3,24.6,69.5,62.6,72.8,114
		c1.7,26.6-0.8,52.6-10.5,77.6c-15,38.8-43.8,63.1-82.5,76.6c-23.7,8.2-48.1,11.9-73.1,12c-51.7,0.2-103.3,0.1-155,0.1
		c-1.7,0-3.3-0.1-5-0.1c0-0.3,0-0.7,0-1c4.4-0.7,8.8-1.1,13.2-2.1c12.3-2.6,21-9.8,23.9-22.1c2.7-11.1,5.2-22.5,5.6-33.8
		c1-30.5,1.1-61,1.1-91.5c0-29.8-0.3-59.7-1-89.5c-0.3-12.8-1.9-25.6-6.8-37.6c-3.7-9.1-10-15.3-19.6-17.7c-5.5-1.4-11-2.5-16.5-3.7
		C53.3,48.5,53.3,48.1,53.3,47.8z M142.5,339.9c10.1,0,19.7-0.1,29.3,0c20.9,0.3,41.6-0.4,62.1-5.1c39.6-9,69.3-30.3,84-69.3
		c11.9-31.6,13.5-64.4,8.6-97.4c-8.1-54.7-38.8-90.2-92.2-105.5c-29.8-8.5-60.4-6.7-90.8-6.4c-0.3,0-0.5,0.4-0.9,0.7
		C142.5,150.8,142.5,244.9,142.5,339.9z"/>
	<path d="M2024.3,41.8c9.5,1.7,19,3,28.3,5.2c26,6.1,51.1,14.8,75.2,26.4c5,2.4,6.5,5.3,6.4,10.7c-0.4,18-0.1,36-0.1,54
		c0,1.4,0,2.8,0,4.2c-0.3,0-0.5,0.1-0.8,0.1c-2.3-5.6-4.4-11.3-6.9-16.8c-12.8-28.2-31.8-50.7-59.9-64.7
		c-50.6-25.2-107.5-9.1-138.4,39.2c-20.7,32.3-28.2,68.3-27.2,106.2c0.7,25.6,6,50.1,17,73.3c35.4,74.2,129.5,82.9,181.7,29.3
		c15.3-15.7,26.1-34,33.5-54.4c0.4-1.2,0.9-2.4,2.5-3.6c0,1.8,0,3.7,0,5.5c0,18.2-0.1,36.3,0,54.5c0,3.8-1.4,5.7-4.6,7.2
		c-34,16.3-69.2,29.8-107,31.7c-49.6,2.6-95.3-9.4-132.1-45.2c-25.5-24.7-38.2-55.7-41.5-90.7c-3.8-40.1,5.9-76.7,29.5-109.4
		c24.8-34.2,59-52.9,100.2-59.9c7.3-1.2,14.8-2.1,22.2-3.1C2009.7,41.8,2017,41.8,2024.3,41.8z"/>
	<path d="M2286.3,424.8c1.3-0.7,2.5-1.6,3.8-2.1c3.4-1.5,6.8-2.7,10.2-4.2c20-8.8,30.7-24.3,33-45.8c0.7-6.6,1.2-13.3,1.2-19.9
		c0-77.5,0.2-154.9-0.3-232.4c-0.1-13.7-1.9-27.5-3.9-41.2c-2.4-16.2-11.4-26.6-28.4-28.9c-1.6-0.2-3.2-0.7-4.7-1.7
		c40.2,0,80.4,0,120.5,0c0.1,0.2,0.1,0.4,0.2,0.5c-2.4,0.6-4.9,1.2-7.3,1.7c-13.4,2.5-21.4,10.5-24.9,23.5
		c-4.3,16.3-5.2,32.9-5.3,49.5c-0.2,75.8-0.7,151.6,0.1,227.4c0.3,30.6-14.1,49.5-40.6,61.2c-14.1,6.3-29,9.6-44.3,11.3
		c-1.8,0.2-3.6,0.7-5.4,1C2289,424.8,2287.7,424.8,2286.3,424.8z"/>
	<path d="M991,347.3c6-1.2,12-2.3,17.9-3.7c13-3.1,21.1-11.4,25.4-23.7c5.3-15,6.6-30.7,6.7-46.3c0.3-68.3,0.2-136.7,0.3-205
		c0-0.5-0.1-1-0.4-2.6c-1.1,2.2-1.9,3.5-2.5,4.8c-31.9,72.2-63.8,144.3-95.6,216.5c-0.9,2-0.6,5.1,0.2,7.3c1.3,3.9,3.5,7.5,5.4,11.6
		c-9.1,5.6-16.7,12.8-20.2,22.8c-3.4,9.6-5.3,19.7-7.8,29.5c-40-95.9-80.3-192.6-120.7-289.3c-0.3,0-0.6,0-0.8,0.1
		c-0.1,1-0.4,2-0.4,2.9c0,64-0.3,128,0.2,192c0.1,16.2,1.7,32.6,4.5,48.6c3.8,21.5,13,29.2,34.4,33c2.3,0.4,4.5,0.8,6.7,1.8
		c-34.6,0-69.2,0-103.8,0c0-0.1,0-0.3-0.1-0.4c5.6-1.2,11.3-2.2,16.9-3.5c12.5-2.9,20.9-10.5,25.4-22.5c5.6-15.1,7.1-30.9,7.2-46.7
		c0.3-51.8,0.3-103.7-0.1-155.5c-0.1-12.3-1.9-24.6-3.8-36.7c-2.7-18.1-12.6-29.7-31.6-32c-2-0.2-4-0.9-5.8-2.3c5.9,0,11.8,0,17.8,0
		c22.7,0,45.3,0.1,68-0.1c4.3,0,6.4,1.2,8.1,5.3c30.3,73.4,60.8,146.7,91.3,220c0.9,2.1,1.8,4.2,3.2,7.2c4.3-9.7,8.3-18.4,12.1-27.2
		c29.5-66.9,58.9-133.7,88.3-200.6c1.2-2.7,2.3-4.7,6-4.7c28,0.2,56,0.1,84.2,0.8c-0.9,0.3-1.7,0.8-2.7,0.9
		c-23.9,4.5-32.3,12.7-35.6,36.9c-1.8,13.3-3,26.9-3.1,40.3c-0.4,48.2-0.5,96.3,0.1,144.5c0.2,15.4,2.4,30.8,4.8,46.1
		c2.5,16.1,12.7,25.5,28.9,28.1c2.5,0.4,4.9,1,7.3,1.5c0.1,0,0.2,0.3,0.4,0.7c-45.7,0-91.3,0-136.8,0
		C991.1,347.6,991.1,347.5,991,347.3z"/>
	<path d="M2751.9,194.1c0.7,75.8-52.7,140.7-126.2,153.7c-58,10.3-108.5-5-148.5-48.9c-28.1-30.8-39.2-68.2-37.4-109.6
		c1.4-30.3,10-58.3,28.2-82.9c23.6-31.9,55.8-50.4,94.1-58.4c32.5-6.8,64.7-5.9,95.8,6.3c49.5,19.4,78.6,56.4,90.3,107.7
		c1.3,5.7,2.1,11.5,2.8,17.2C2751.6,184.7,2751.6,190.2,2751.9,194.1z M2491,199.3c-0.4,0.1-0.9,0.1-1.3,0.2
		c2.2,16.3,3.5,32.8,6.9,48.8c5.5,26.3,16.5,50.2,36,69.4c30.8,30.2,78.3,34.5,112.6,10.1c18-12.8,30.2-30.4,38.8-50.5
		c15.4-35.8,19.6-73.1,14-111.5c-4.1-28.1-13.4-54.2-30.7-77.1c-26.1-34.4-67.9-46.7-105.7-31.1c-24,9.9-39.9,28.3-51.2,51
		C2496.2,137.4,2491.2,167.8,2491,199.3z"/>
	<path d="M731.2,196.2c0.2,79.8-58.8,145.6-138.6,153.5c-59.5,5.9-109-14-145.1-62.5c-23.3-31.3-31-67.3-27.4-105.8
		c3.2-34.7,16-65.1,40.5-90.1c23.2-23.7,51.7-37.7,84.1-43.8c34.5-6.5,68.5-4.7,100.7,10.1c47.5,21.8,74.2,60,83.8,110.8
		c1,5.1,1.5,10.2,1.9,15.3C731.4,187.8,731.2,192,731.2,196.2z M680.3,191.1c-0.8-7.2-1.7-20.5-4.1-33.6c-5-27.6-15.3-53.1-34-74.5
		C611.7,48.2,563.7,41,526.3,65.9c-21.1,14-34,34.5-42.6,57.7c-13.5,36.2-15.9,73.7-10.1,111.7c3.8,25.1,11.8,48.9,27.4,69.4
		c23.3,30.8,54.1,44.1,92.3,37.1c27.5-5,46.5-22.7,60.8-45.8C672.6,265.7,679.4,232.3,680.3,191.1z"/>
	<path d="M3045.4,279.6c0-2.9,0-4.5,0-6c0-47.2,0.3-94.3-0.2-141.5c-0.2-14.9-1.6-30-4.1-44.7c-4.1-24-14.4-33.3-38.3-37.6
		c-1.1-0.2-2.2-0.4-3.2-1.3c33.3,0,66.5,0,99.8,0c0,0.2,0.1,0.4,0.1,0.5c-3.8,0.9-7.5,1.8-11.3,2.6c-14.5,3.2-24.3,12.1-27.8,26.3
		c-2.9,11.7-5.4,23.8-5.8,35.8c-1.1,26.5-0.9,53-1,79.5c-0.1,30,0.1,60-0.1,90c0,5.1,0.7,9.4,4.2,13.3c2.5,2.8,4.5,6.2,6.9,9.7
		c-16.8,13.9-21.3,32.2-19.9,53.5c-75.5-98.8-151.1-197.7-227.1-297.2c-0.3,1.7-0.6,2.7-0.6,3.7c0.1,71.3,0,142.6,0.6,214
		c0.1,12.8,2.6,25.8,5.4,38.4c3.6,16.7,15.7,24.7,32,27.1c2.6,0.4,5.1,0.9,7.7,2c-33.2,0-66.4,0-99.6,0c0-0.2-0.1-0.4-0.1-0.5
		c3.8-0.8,7.6-1.6,11.4-2.2c15.2-2.7,25.1-11.6,28.4-26.5c2.7-12.1,5.2-24.6,5.3-37c0.6-55.3,0.5-110.6,0-166
		c-0.1-11.9-2.4-23.8-4.7-35.5c-3.3-17-14.3-26.5-31.4-29.1c-3-0.5-6-1.1-8.9-2.7c1.9,0,3.8,0,5.7,0c31.2,0,62.3,0.1,93.5-0.1
		c5.1,0,8,1.7,11,5.7c56,73.8,112.1,147.5,168.2,221.2C3042.4,276.1,3043.5,277.3,3045.4,279.6z"/>
	<path d="M1616.1,279.7c0-3.2,0-5,0-6.7c0-43.8,0.4-87.7-0.2-131.5c-0.3-18.2-2.1-36.5-4.5-54.6c-2.8-21.3-15.4-34-37.2-37
		c-1.4-0.2-2.8-0.6-4.1-1.6c33.2,0,66.3,0,99.5,0c0.1,0.2,0.1,0.4,0.2,0.6c-2.3,0.5-4.5,1.3-6.8,1.6c-18.7,2.9-30,14-33.6,32.2
		c-2.5,12.8-4.7,26-4.8,39c-0.6,55.3-0.3,110.7-0.3,166c0,1.8,0.8,3.9,1.8,5.5c2.8,4.3,5.9,8.5,9.1,13.1
		c-8.1,6.3-13.8,14.4-16.8,24.1c-3,9.5-3.9,19.2-2.9,29.5c-75.6-99-151.3-198-227.8-298c-0.2,2.8-0.3,4.2-0.3,5.6
		c0,66.2-0.3,132.3,0.2,198.5c0.1,15.7,2.1,31.5,4.5,47.1c2.9,19.4,14.8,30.2,34.4,32.6c2.2,0.3,4.4,0.9,6.5,1.9
		c-33.1,0-66.2,0-99.2,0c0-0.2-0.1-0.4-0.1-0.6c2.7-0.5,5.4-0.9,8.1-1.5c21-4.3,30.1-13.1,33.4-34.8c2.4-15.4,3.8-31.1,3.9-46.7
		c0.5-44.2,0.6-88.3,0-132.5c-0.2-16.6-2.2-33.2-4.7-49.6c-2.9-18.4-14.4-29-33.2-31.4c-2.3-0.3-4.6-0.8-6.9-1.3
		c-0.1,0-0.3-0.2-0.9-0.8c1.6-0.2,2.7-0.4,3.9-0.4c32.3,0,64.7,0,97-0.1c3.7,0,6.1,1,8.4,4c56.5,74.4,113.1,148.8,169.7,223.2
		C1613.2,276.4,1614.1,277.4,1616.1,279.7z"/>
	<path d="M3388,118.6c-2.2-2.4-3.6-4-5-5.5c-10.9-10.8-21.3-22-32.8-32.2c-18-15.9-39.2-24.3-63.4-24.4c-23.3-0.1-46.6,0-70.3,0
		c0,44.8,0,89.3,0,134.7c8.9-0.5,17.7-0.4,26.4-1.6c10.4-1.3,20.7-3.1,30.8-5.7c20.1-5.2,32.8-18.8,40.6-37.5
		c2.2-5.3,4.6-10.5,7.7-15.6c0,43,0,85.9,0,130.1c-1.3-2.3-2.1-3.6-2.8-5c-2.7-5.6-5.4-11.1-7.9-16.7c-9.1-20.7-25.2-32.5-47-37.1
		c-15.7-3.3-31.5-4.6-47.9-4.4c0,47.4,0,94.5,0,141.5c0.5,0.2,0.7,0.5,1,0.5c32.3-0.5,64.6-0.3,96.9-1.9c36.9-1.8,62.1-21.9,78.7-54
		c2.6-5.1,5.2-10.2,7.8-15.3c0.5,0.2,1.1,0.4,1.6,0.6c-7.2,27.4-14.4,54.8-21.7,82.5c-5.5-0.7-10.7-1.8-16-1.9
		c-44.5-0.7-89-1.4-133.4-1.7c-32.8-0.3-65.7-0.1-98.5-0.1c-1.3,0-2.6,0-4.1-0.8c3.4-0.8,6.8-1.6,10.2-2.3
		c13.3-2.5,21.4-10.6,25.3-23.3c4.6-15.2,5.7-30.8,5.8-46.4c0.3-51.7,0.4-103.3,0-155c-0.1-13.4-1.9-26.9-3.8-40.2
		c-2.4-16.5-11.4-27.4-28.8-29.7c-1.5-0.2-2.9-0.6-4.3-1c-0.1,0-0.2-0.3-0.6-1c3.7,0,7,0,10.4,0c57.8-0.1,115.6-0.1,173.5-0.5
		c13.4-0.1,26.9-1.9,40.3-2.7c1.4-0.1,3.7,0.8,4.2,1.9c9.2,22.7,18.2,45.4,27.2,68.2C3388.2,115.6,3388,116.5,3388,118.6z"/>
	<path d="M3436.3,266.6c7,12.6,13.3,25.7,21.2,37.7c25.2,37.8,65,46.9,103.1,36.1c32.7-9.3,50-45.4,37.6-77.2
		c-6.2-15.9-19.1-25.1-34.1-31.1c-19.5-7.7-39.3-14.5-59.1-21.4c-16.7-5.8-32-13.5-44.8-26.2c-38.7-38.3-27.6-110.1,28.8-132
		c28.7-11.2,58.1-11.4,87.3-4c15.4,3.9,30,10.5,45,15.9c3.6,1.3,4.9,3.5,4.9,7.5c-0.2,17.4-0.1,34.9-1.2,52.6
		c-0.8-1.9-1.6-3.7-2.4-5.6c-8.7-20.3-20.4-38.6-38.4-52c-22.8-16.9-48.2-20.2-74.9-11.6c-21.9,7-34.1,25.5-35,50.2
		c-1,27.1,13.2,44.6,36.4,54.9c17.7,7.9,36.4,13.8,54.7,20.3c13.8,4.9,27.6,9.6,40.2,17.5c49,30.7,49.9,110.8-9.3,139.8
		c-23.1,11.3-47.6,14.7-72.8,13.5c-28.4-1.3-55.5-8.3-81.2-20.8c-4.7-2.3-6.3-5-6.2-10.2C3436.5,302.4,3436.3,284.3,3436.3,266.6z"
		/>
	<path d="M1824.7,347.8c-40.4,0-80.6,0-120.9,0c0-0.2-0.1-0.4-0.1-0.5c3.9-1,7.8-2,11.7-3c9.7-2.5,16.5-8.7,18.8-18.2
		c2.8-11.4,5.2-23.1,5.9-34.8c1.2-19.3,1.1-38.6,1.1-57.9c0.1-36.3,0.5-72.6-0.3-108.9c-0.3-16.1-2.4-32.2-4.8-48.1
		c-2.3-14.7-11.6-23.5-26.6-25.8c-1.9-0.3-3.8-0.9-5.6-2c40.2,0,80.4,0,120.6,0c0,0.2,0.1,0.4,0.1,0.5c-3.3,0.8-6.6,1.8-9.9,2.5
		c-11.2,2.4-18.9,9.2-21.3,20.1c-2.9,13.8-5.7,27.9-5.9,41.8c-0.7,56-0.6,111.9-0.1,167.9c0.1,13,2.5,26.1,4.7,39
		c2.6,14.8,12.1,23.2,26.9,25.5c1.8,0.3,3.5,0.8,5.3,1.2C1824.5,347.1,1824.6,347.4,1824.7,347.8z"/>
	<path d="M1170.2,48.2c40.3,0,80.6,0,120.9,0c0.1,0.3,0.2,0.6,0.2,0.9c-2.4,0.6-4.7,1.2-7.1,1.6c-13.8,2.5-21.9,10.7-25.4,24.2
		c-4.6,17.9-5.2,36.3-5.2,54.6c-0.1,52.8,0.1,105.6,0.8,158.4c0.1,10.6,2.1,21.2,4,31.6c2.8,14.8,11.7,23.9,26.9,26.3
		c2.1,0.3,4.1,0.9,6.1,1.9c-40.3,0-80.5,0-120.8,0c0-0.2-0.1-0.3-0.1-0.5c1.3-0.4,2.5-0.9,3.8-1.2c18.1-3.2,26.2-9.4,29.7-31.6
		c2.6-16.4,3.7-33.1,3.8-49.7c0.3-51.3,0-102.6-0.7-153.9c-0.1-11.2-2-22.5-4-33.6c-2.7-15-11.4-24.5-27-26.7
		c-2.1-0.3-4.1-1-6.1-1.5C1170.2,48.8,1170.2,48.5,1170.2,48.2z"/>
</g>
</svg>
